<svg xmlns="http://www.w3.org/2000/svg" viewBox="0 0 512 512"><defs id="defs91"><clipPath id="clip-path"><rect x="233" y="183.5" width="1034" height="633" rx="67" style="fill:none"/></clipPath><style id="style86">.cls-3{fill:#71afde}.cls-5{fill:#f5b31a}.cls-6{fill:#84361c}.cls-7{fill:#83371b}</style></defs><g clip-path="url(#clip-path)" id="g231" transform="translate(-115.373 8.418) scale(.49516)" style="clip-path:url(#clip-path)"><path class="cls-3" d="M186.18 168.9h1127.65v220.74H186.18zM186.18 610.37h1127.65v220.74H186.18z"/><path style="fill:#fff" d="M186.18 389.63h1127.65v220.74H186.18z"/><path class="cls-5" d="m745.72 501.78 38.56 84S785 587.4 786 587c1-.4.4-2.05.4-2.05l-32.14-86.68m-.92 32.69c-.47 12.78 7.39 19.81 6.36 31.22-1.03 11.41 5.24 17.86 6.7 22.3 1.46 4.44-1.57 7.09-.27 7.72 1.3.63 4.16-2.87 3.23-9.18-.93-6.31-5.72-8.18-4.6-22.12 1.12-13.94-5.7-17.18-4-29.9"/><path class="cls-6" d="M766.47 592.71a1.24 1.24 0 0 1-.53-.12c-.92-.45-.6-1.4-.25-2.4a8.14 8.14 0 0 0 .28-5.6 26.55 26.55 0 0 0-2-4c-2.34-4.23-5.53-10-4.77-18.49.5-5.61-1.18-10.14-3-14.92-1.82-4.78-3.64-9.81-3.41-16.28h1c-.24 6.28 1.58 11.17 3.34 15.91 1.76 4.74 3.54 9.51 3 15.33-.74 8.19 2.38 13.83 4.65 18a25.47 25.47 0 0 1 2 4.16 9 9 0 0 1-.28 6.2c-.24.71-.39 1.17-.24 1.24.15.07.39 0 .65-.2 1.15-.84 2.6-3.8 1.91-8.48a18.83 18.83 0 0 0-1.86-5.4c-1.64-3.51-3.49-7.49-2.74-16.83.55-6.83-.84-11.05-2.18-15.14-1.15-3.52-2.25-6.88-2.11-11.61L745.29 502l.86-.39 14 30.48c0-.38.08-.76.14-1.16l.94.12c-.13 1-.21 2-.24 2.86l23.73 51.72s.52 1.17 1.13.92a.42.42 0 0 0 .25-.24 1.89 1.89 0 0 0-.11-1.19l-32.16-86.72.89-.33 32.15 86.68a2.74 2.74 0 0 1 .1 1.89 1.34 1.34 0 0 1-.77.76c-1.2.49-2.06-.71-2.36-1.42L761 536.2a33.51 33.51 0 0 0 2 9.18c1.37 4.18 2.78 8.5 2.22 15.52-.74 9.08 1.06 12.94 2.65 16.35a19.48 19.48 0 0 1 1.94 5.66c.71 4.78-.69 8.22-2.28 9.39a1.9 1.9 0 0 1-1.06.41z"/><path class="cls-5" d="m745.36 500 3.48 92.38s0 1.75 1.16 1.75 1.16-1.74 1.16-1.74l3.47-92.39m-13.36 29.85c-5.32 11.63-.75 21.13-6.07 31.28-5.32 10.15-2 18.51-2.35 23.16-.35 4.65-4.16 6-3.2 7s4.94-1.05 6.5-7.24c1.56-6.19-2.15-9.75 4.22-22.2 6.37-12.45 1.31-18 7.7-29.16"/><path class="cls-6" d="M750 594.6c-1.29 0-1.63-1.45-1.63-2.22l-2.06-54.73a33.53 33.53 0 0 0-1.63 9.26c-.33 4.39-.67 8.92-3.89 15.19-4.15 8.11-4 12.37-3.8 16.12a19.86 19.86 0 0 1-.38 6c-1.18 4.69-3.79 7.33-5.71 7.8a1.58 1.58 0 0 1-1.61-.36c-.67-.77 0-1.52.69-2.32a8.1 8.1 0 0 0 2.39-5.07 25.34 25.34 0 0 0-.26-4.44c-.54-4.79-1.28-11.36 2.67-18.9 2.62-5 2.79-9.81 3-14.92.21-5.11.38-10.45 3.08-16.34l.86.4c-2.61 5.71-2.8 10.93-3 16-.19 5.21-.37 10.14-3.08 15.32-3.82 7.29-3.1 13.69-2.58 18.36a26.18 26.18 0 0 1 .27 4.62 9.09 9.09 0 0 1-2.63 5.63c-.51.57-.81.93-.69 1.06.12.13.35.14.67.06 1.38-.33 3.85-2.5 5-7.1a18.92 18.92 0 0 0 .35-5.71c-.17-3.87-.36-8.26 3.91-16.6 3.12-6.09 3.46-10.53 3.78-14.82.28-3.69.55-7.22 2.49-11.54L744.89 500h1l1.26 33.51c.18-.34.36-.67.56-1l.83.48c-.51.88-.94 1.72-1.31 2.53l2.14 56.87s0 1.29.68 1.29.68-1.25.68-1.26l3.47-92.4h1l-3.47 92.39c-.1.74-.44 2.19-1.73 2.19z"/><path class="cls-5" d="m745.71 498.23-32.13 86.68s-.67 1.61.4 2.05c1.07.44 1.73-1.16 1.73-1.16l38.57-84m-23.77 22.47c-9.36 8.7-8.78 19.23-17.57 26.57-8.79 7.34-8.93 16.33-11 20.5-2.07 4.17-6.14 3.91-5.66 5.27.48 1.36 5 .91 8.78-4.2 3.78-5.11 1.74-9.83 12.39-18.89s8.12-16.18 18.28-24"/><path class="cls-6" d="M714.35 587.51a1.54 1.54 0 0 1-.55-.11 1.37 1.37 0 0 1-.77-.76 2.74 2.74 0 0 1 .11-1.91l19-51.35a33.94 33.94 0 0 0-5 7.93c-2 3.92-4 8-9.4 12.54-7 5.91-8.4 9.91-9.68 13.43a19.44 19.44 0 0 1-2.64 5.38c-2.88 3.88-6.3 5.32-8.25 5a1.59 1.59 0 0 1-1.36-1c-.34-1 .57-1.41 1.52-1.88a8.09 8.09 0 0 0 4.16-3.76 25.43 25.43 0 0 0 1.45-4.21c1.34-4.63 3.17-11 9.7-16.44 4.33-3.61 6.34-8 8.47-12.65 2.13-4.65 4.35-9.51 9.09-13.91l.65.7c-4.61 4.27-6.78 9-8.88 13.61-2.17 4.75-4.22 9.23-8.72 13-6.31 5.27-8.09 11.46-9.4 16a25.44 25.44 0 0 1-1.51 4.36 9.12 9.12 0 0 1-4.59 4.2c-.66.32-1.1.55-1 .71.1.16.28.27.6.32 1.4.2 4.52-.85 7.35-4.66a18.43 18.43 0 0 0 2.5-5.13c1.33-3.64 2.83-7.77 10-13.83 5.22-4.44 7.23-8.41 9.18-12.25 1.67-3.3 3.26-6.45 6.7-9.7l12.28-33.12.89.33-11.75 31.5c.29-.25.6-.49.91-.73l.58.75c-.8.62-1.53 1.24-2.19 1.85L714 585.07a2 2 0 0 0-.12 1.2.46.46 0 0 0 .26.25c.6.25 1.1-.89 1.11-.9l38.57-84.05.87.4-38.57 84a2.76 2.76 0 0 1-1.26 1.4 1.23 1.23 0 0 1-.51.14z"/><path class="cls-5" d="m746.72 496.73-62.87 67.78s-1.23 1.23-.41 2c.82.77 2-.4 2-.4l67.79-62.87m-30.56 11.66c-12 4.45-15.47 14.4-26.41 17.82s-14.5 11.68-18 14.73c-3.5 3.05-7.15 1.25-7.24 2.7-.09 1.45 4.25 2.74 9.72-.53 5.47-3.27 5.38-8.42 18.68-12.71 13.3-4.29 13.69-11.85 26.07-15.17"/><path class="cls-6" d="M684.1 567.31a1.35 1.35 0 0 1-1-.42 1.4 1.4 0 0 1-.42-1 2.8 2.8 0 0 1 .84-1.71L720.77 524a34 34 0 0 0-7.71 5.4c-3.33 2.87-6.78 5.83-13.48 8-8.67 2.8-11.55 5.94-14.09 8.71a19.52 19.52 0 0 1-4.49 4c-4.15 2.48-7.86 2.5-9.55 1.48a1.55 1.55 0 0 1-.89-1.39c.06-1 1.06-1.09 2.13-1.15a8.1 8.1 0 0 0 5.27-1.89 25.24 25.24 0 0 0 2.94-3.32c3-3.78 7.13-8.95 15.27-11.49 5.38-1.68 8.91-5 12.65-8.44 3.74-3.44 7.66-7.12 13.73-9.38l.34.89c-5.9 2.19-9.72 5.75-13.42 9.18-3.7 3.43-7.44 6.91-13 8.66-7.86 2.45-11.87 7.49-14.81 11.17a26.52 26.52 0 0 1-3 3.46 9.15 9.15 0 0 1-5.84 2.11c-.74 0-1.23.09-1.24.26-.01.17.15.35.43.52 1.22.73 4.5 1 8.57-1.49a18.71 18.71 0 0 0 4.28-3.78c2.62-2.86 5.59-6.1 14.5-9 6.52-2.1 9.89-5 13.15-7.8 2.81-2.41 5.49-4.71 9.93-6.4l24-25.89.7.65-22.8 24.59 1.11-.32.25.92c-1 .26-1.88.55-2.72.86l-38.78 41.72s-.89.92-.42 1.38c.47.46 1.37-.4 1.38-.41L753 502.93l.65.7-67.84 62.87a2.69 2.69 0 0 1-1.71.81z"/><path class="cls-6" d="M755.84 533.08c.62 12.28 7.57 17.71 6.21 28.89 3-8.84-4.23-15.7-3.83-28.76M747.86 501l26.41 57.71-22.13-59.48"/><path class="cls-6" d="M742.74 532.81c-4.13 11.56.22 19.25-5.33 29.06 6.16-7 2.1-16.13 7.48-28m2.75-33.71 2.36 63.38 2.32-63.42"/><path class="cls-6" d="M730.74 527.53c-8.25 9.11-7.17 17.87-16 24.81 8.37-4.13 8.1-14.09 17.63-23m15.44-30.1-22.13 59.48L752.05 501"/><path class="cls-6" d="M721.67 518.05c-11.1 5.27-13.46 13.78-24.32 16.8 9.33-.62 12.89-9.93 25.12-14.54m25.78-21.9L705 544.89l46.49-43.21"/><path class="cls-5" d="m748.23 495.71-84 38.57S662.6 535 663 536c.4 1 2.05.4 2.05.4l86.68-32.14m-32.69-.92c-12.78-.47-19.8 7.39-31.22 6.36-11.42-1.03-17.86 5.25-22.3 6.7-4.44 1.45-7.09-1.57-7.72-.27-.63 1.3 2.87 4.16 9.19 3.23 6.32-.93 8.17-5.72 22.11-4.6s17.19-5.7 29.9-4"/><path class="cls-6" d="M664.08 537.11a1.81 1.81 0 0 1-.72-.14 1.37 1.37 0 0 1-.76-.77c-.49-1.19.71-2.06 1.41-2.36L713.79 511a33.89 33.89 0 0 0-9.17 2c-4.17 1.37-8.49 2.79-15.51 2.22-9.09-.73-13 1.06-16.35 2.65a19.69 19.69 0 0 1-5.66 1.94c-4.79.71-8.23-.69-9.4-2.29a1.53 1.53 0 0 1-.28-1.62c.44-.92 1.39-.59 2.4-.25a8.1 8.1 0 0 0 5.59.28 26.15 26.15 0 0 0 4-2c4.22-2.34 10-5.53 18.49-4.77 5.61.51 10.13-1.18 14.92-3 4.79-1.82 9.8-3.64 16.27-3.41v1c-6.28-.24-11.18 1.58-15.91 3.34-4.89 1.82-9.51 3.54-15.34 3-8.19-.74-13.83 2.38-17.94 4.65a25.52 25.52 0 0 1-4.17 2 9 9 0 0 1-6.2-.28c-.7-.24-1.17-.38-1.24-.24-.07.14 0 .39.2.65.84 1.15 3.79 2.6 8.49 1.91a18.76 18.76 0 0 0 5.39-1.86c3.51-1.64 7.5-3.49 16.83-2.74 6.83.55 11.06-.83 15.15-2.18 3.51-1.15 6.87-2.25 11.59-2.11L748 495.28l.4.87-30.5 14 1.17.14-.12.94c-1-.13-2-.21-2.87-.24l-51.68 23.72s-1.17.52-.92 1.13a.43.43 0 0 0 .25.26 1.93 1.93 0 0 0 1.18-.12l86.7-32.15.33.89-86.68 32.15a3.31 3.31 0 0 1-1.18.24z"/><path class="cls-5" d="m750 495.36-92.38 3.48s-1.74 0-1.75 1.16c-.01 1.16 1.75 1.16 1.75 1.16l92.38 3.47m-29.85-13.36c-11.62-5.32-21.13-.75-31.28-6.06-10.15-5.31-18.51-2-23.16-2.36-4.65-.36-6-4.16-7-3.2s1.05 4.94 7.25 6.5c6.2 1.56 9.74-2.15 22.19 4.22 12.45 6.37 18.06 1.31 29.17 7.71"/><path class="cls-6" d="m750 505.11-92.38-3.48c-.75 0-2.2-.34-2.2-1.63 0-1.29 1.45-1.63 2.22-1.63l54.74-2.06a33.6 33.6 0 0 0-9.27-1.63c-4.38-.33-8.91-.67-15.19-3.88-8.11-4.16-12.36-4-16.12-3.81a19.78 19.78 0 0 1-6-.38c-4.69-1.18-7.34-3.79-7.81-5.71a1.55 1.55 0 0 1 .36-1.6c.77-.68 1.52 0 2.33.68a8 8 0 0 0 5.06 2.39 25.34 25.34 0 0 0 4.44-.26c4.79-.54 11.36-1.28 18.9 2.67 5 2.62 9.82 2.8 14.92 3 5.1.2 10.45.39 16.34 3.08l-.4.87c-5.71-2.62-10.93-2.81-16-3-5.22-.19-10.15-.37-15.33-3.08-7.29-3.82-13.69-3.1-18.36-2.58a26.18 26.18 0 0 1-4.62.27 9 9 0 0 1-5.61-2.62c-.58-.51-.94-.81-1.07-.69-.13.12-.14.35-.06.67.33 1.38 2.51 3.85 7.11 5a18.85 18.85 0 0 0 5.7.35c3.87-.17 8.26-.36 16.6 3.91 6.1 3.12 10.54 3.46 14.83 3.78 3.69.28 7.21.55 11.54 2.49l35.33-1.34v.95l-33.5 1.26 1 .56-.48.83a28.08 28.08 0 0 0-2.54-1.31l-56.87 2.14s-1.29 0-1.29.68 1.26.68 1.27.68l92.41 3.47z"/><path class="cls-5" d="m751.77 495.71-86.68-32.13s-1.6-.67-2.05.4c-.45 1.07 1.17 1.73 1.17 1.73l84 38.57m-22.47-23.77c-8.7-9.36-19.23-8.78-26.57-17.57-7.34-8.79-16.33-8.93-20.5-11-4.17-2.07-3.9-6.13-5.27-5.65-1.37.48-.91 5 4.2 8.78 5.11 3.78 9.83 1.74 18.89 12.39s16.18 8.12 24 18.28"/><path class="cls-6" d="m748 504.71-84-38.57a2.8 2.8 0 0 1-1.41-1.26 1.35 1.35 0 0 1 0-1.08 1.44 1.44 0 0 1 .77-.78 2.85 2.85 0 0 1 1.91.12l51.35 19a33.88 33.88 0 0 0-7.93-5.05c-3.93-2-8-4-12.55-9.4-5.91-7-9.91-8.4-13.44-9.68a19.52 19.52 0 0 1-5.37-2.64c-3.88-2.88-5.33-6.3-5-8.25a1.59 1.59 0 0 1 1-1.36c1-.34 1.41.57 1.88 1.53a8.11 8.11 0 0 0 3.76 4.15 25.43 25.43 0 0 0 4.21 1.45c4.63 1.34 11 3.17 16.44 9.7 3.61 4.33 8 6.34 12.65 8.47 4.65 2.13 9.51 4.35 13.91 9.09l-.7.65c-4.27-4.61-9-6.78-13.61-8.88-4.75-2.17-9.23-4.22-13-8.72-5.27-6.31-11.46-8.09-16-9.4a25.88 25.88 0 0 1-4.37-1.51 9.06 9.06 0 0 1-4.18-4.59c-.34-.68-.55-1.09-.72-1-.17.09-.27.28-.32.6-.21 1.4.85 4.52 4.66 7.35a18.43 18.43 0 0 0 5.13 2.5c3.64 1.33 7.77 2.83 13.83 10 4.45 5.22 8.42 7.23 12.26 9.17 3.3 1.68 6.45 3.27 9.7 6.71l33.11 12.28-.33.89-31.48-11.7c.25.29.49.6.73.91l-.75.58c-.62-.8-1.24-1.53-1.85-2.18L664.93 464s-1.19-.47-1.45.14a.5.5 0 0 0 0 .36 2 2 0 0 0 .92.75l84 38.57z"/><path class="cls-5" d="m753.28 496.72-67.78-62.87s-1.24-1.23-2-.41c-.76.82.41 2.05.41 2.05l62.87 67.79m-11.66-30.56c-4.46-12-14.41-15.47-17.83-26.41-3.42-10.94-11.67-14.5-14.72-18-3.05-3.5-1.26-7.15-2.71-7.24-1.45-.09-2.74 4.25.53 9.72 3.27 5.47 8.42 5.38 12.71 18.68 4.29 13.3 11.85 13.69 15.17 26.07"/><path class="cls-6" d="m746.38 503.6-62.87-67.79a3.65 3.65 0 0 1-.59-.82 1.54 1.54 0 0 1 .19-1.89c.91-.91 2.18-.13 2.72.42L726 470.76a34 34 0 0 0-5.4-7.7c-2.87-3.33-5.83-6.78-8-13.48-2.8-8.67-5.94-11.55-8.71-14.09a19.75 19.75 0 0 1-4-4.49c-2.48-4.15-2.51-7.86-1.48-9.55a1.55 1.55 0 0 1 1.39-.89c1 .06 1.09 1.06 1.16 2.13a8.14 8.14 0 0 0 1.88 5.27 26.14 26.14 0 0 0 3.33 3c3.78 3 8.94 7.13 11.49 15.26 1.68 5.38 5 8.91 8.44 12.66 3.44 3.75 7.12 7.66 9.37 13.72l-.89.33c-2.19-5.88-5.74-9.71-9.18-13.41-3.44-3.7-6.91-7.43-8.65-13-2.46-7.85-7.49-11.87-11.17-14.8a26.51 26.51 0 0 1-3.46-3.07 9.05 9.05 0 0 1-2.11-5.83c0-.77-.09-1.23-.27-1.24-.18-.01-.35.15-.52.43-.73 1.22-.94 4.5 1.49 8.57a18.71 18.71 0 0 0 3.78 4.28c2.86 2.62 6.1 5.59 9 14.5 2.1 6.52 5 9.89 7.8 13.15 2.41 2.81 4.71 5.49 6.4 9.91l25.9 24-.65.7-24.6-22.81c.11.36.22.73.32 1.12l-.92.25a26.63 26.63 0 0 0-.87-2.73l-41.72-38.7s-.92-.89-1.39-.42c-.08.08-.27.27 0 .78a2.37 2.37 0 0 0 .43.59l62.89 67.8z"/><path class="cls-6" d="M716.92 505.84c-12.28.61-17.71 7.57-28.89 6.21 8.84 3 15.7-4.23 28.76-3.83M749 497.86l-57.7 26.41 59.48-22.13"/><path class="cls-6" d="M717.19 492.74c-11.56-4.13-19.25.22-29.06-5.33 7 6.16 16.13 2.1 28 7.47m33.72 2.76L686.46 500l63.43 2.32"/><path class="cls-6" d="M722.48 480.73c-9.11-8.24-17.88-7.16-24.82-16 4.13 8.37 14.09 8.1 23 17.63m30.1 15.44-59.48-22.13L749 502.05"/><path class="cls-6" d="M732 471.67c-5.27-11.11-13.78-13.46-16.79-24.32.61 9.32 9.92 12.89 14.54 25.12m21.89 25.78L705.11 455l43.21 46.49"/><path class="cls-5" d="m754.28 498.23-38.57-84s-.66-1.6-1.72-1.16c-1.06.44-.41 2-.41 2l32.14 86.68m.92-32.69c.47-12.78-7.39-19.8-6.36-31.22 1.03-11.42-5.24-17.86-6.7-22.3-1.46-4.44 1.57-7.09.28-7.72-1.29-.63-4.17 2.87-3.24 9.19.93 6.32 5.72 8.17 4.6 22.11s5.7 17.19 4 29.9"/><path class="cls-6" d="m745.27 501.94-32.14-86.68a2.91 2.91 0 0 1-.1-1.9 1.39 1.39 0 0 1 .78-.76c1.18-.49 2.05.71 2.34 1.42L739 463.8a33.89 33.89 0 0 0-2-9.17c-1.37-4.18-2.78-8.5-2.21-15.52.73-9.09-1.07-12.94-2.66-16.35a19.65 19.65 0 0 1-1.94-5.67c-.7-4.78.69-8.22 2.28-9.39a1.57 1.57 0 0 1 1.63-.29c.92.45.6 1.4.25 2.41a8.14 8.14 0 0 0-.27 5.6 24.75 24.75 0 0 0 2 4c2.33 4.22 5.52 10 4.76 18.49-.5 5.61 1.18 10.13 3 14.92 1.82 4.79 3.65 9.8 3.41 16.27h-1c.23-6.29-1.59-11.18-3.35-15.91-1.82-4.89-3.54-9.51-3-15.34.73-8.19-2.38-13.83-4.66-17.94a27.28 27.28 0 0 1-2-4.17 9 9 0 0 1 .28-6.2c.24-.7.39-1.17.24-1.24-.15-.07-.39 0-.66.2-1.14.84-2.59 3.79-1.89 8.49a18.52 18.52 0 0 0 1.85 5.4c1.64 3.51 3.5 7.49 2.74 16.82-.55 6.84.84 11.06 2.18 15.15 1.15 3.52 2.25 6.88 2.11 11.61L754.71 498l-.86.39-14-30.48c0 .38-.08.77-.13 1.16l-1-.12q.19-1.51.24-2.85l-23.68-51.7s-.51-1.17-1.11-.92c-.11 0-.35.14-.32.7a2.83 2.83 0 0 0 .17.73l32.14 86.7z"/><path class="cls-5" d="m754.63 500-3.47-92.38s0-1.75-1.16-1.75-1.15 1.74-1.15 1.74L745.37 500m13.36-29.85c5.32-11.62.75-21.13 6.07-31.28 5.32-10.15 2-18.51 2.35-23.16.35-4.65 4.16-5.95 3.2-7-.96-1.05-4.94 1.05-6.49 7.25-1.55 6.2 2.14 9.74-4.23 22.19-6.37 12.45-1.3 18.06-7.71 29.17"/><path class="cls-6" d="M745.84 500h-1l3.48-92.39c0-.74.34-2.19 1.63-2.19 1.29 0 1.64 1.45 1.64 2.22l2.05 54.74a33.66 33.66 0 0 0 1.63-9.27c.33-4.38.68-8.92 3.89-15.19 4.15-8.11 4-12.36 3.81-16.12a19.45 19.45 0 0 1 .37-6c1.18-4.69 3.78-7.33 5.7-7.81a1.57 1.57 0 0 1 1.62.36c.68.77 0 1.52-.69 2.32a8.15 8.15 0 0 0-2.4 5.07 26.49 26.49 0 0 0 .27 4.44c.54 4.79 1.28 11.36-2.67 18.9-2.61 5-2.79 9.82-3 14.92-.21 5.1-.38 10.45-3.08 16.34l-.86-.4c2.61-5.71 2.81-10.93 3-16 .19-5.22.37-10.15 3.09-15.33 3.81-7.29 3.09-13.68 2.57-18.35a26.45 26.45 0 0 1-.28-4.63 9.09 9.09 0 0 1 2.63-5.62c.5-.56.81-.93.7-1.06-.11-.13-.36-.14-.68-.06-1.38.34-3.85 2.51-5 7.11a18.52 18.52 0 0 0-.35 5.7c.16 3.87.35 8.26-3.91 16.59-3.13 6.11-3.46 10.54-3.79 14.83-.28 3.7-.55 7.22-2.49 11.54l1.39 35.34h-1l-1.26-33.5-.57 1-.82-.48a28.08 28.08 0 0 0 1.31-2.54l-2.14-56.87s0-1.29-.68-1.29-.68 1.25-.68 1.26z"/><path class="cls-5" d="m754.28 501.77 32.15-86.68s.66-1.6-.41-2c-1.07-.4-1.73 1.17-1.73 1.17l-38.56 84m23.76-22.47c9.37-8.7 8.78-19.23 17.57-26.57 8.79-7.34 8.93-16.33 11-20.5 2.07-4.17 6.12-3.9 5.65-5.27-.47-1.37-5-.91-8.78 4.2-3.78 5.11-1.74 9.83-12.39 18.89s-8.12 16.18-18.28 24"/><path class="cls-6" d="m754.73 501.94-.89-.33 11.66-31.44c-.29.24-.6.48-.91.72l-.58-.75c.8-.62 1.53-1.24 2.18-1.85L786 414.93s.47-1.19-.14-1.45-1.11.9-1.11.91l-38.57 84-.86-.4 38.55-84a2.81 2.81 0 0 1 1.27-1.42 1.42 1.42 0 0 1 1.09 0c1.19.5.95 2 .66 2.67l-19 51.36a33.88 33.88 0 0 0 5-7.93c2-3.93 4-8 9.4-12.55 6.94-5.91 8.4-9.91 9.69-13.44a19.48 19.48 0 0 1 2.63-5.37c2.89-3.88 6.3-5.33 8.26-5a1.56 1.56 0 0 1 1.35.95c.34 1-.57 1.41-1.52 1.88a8.09 8.09 0 0 0-4.16 3.76 26.47 26.47 0 0 0-1.44 4.21c-1.34 4.63-3.17 11-9.71 16.44-4.33 3.61-6.34 8-8.46 12.65-2.12 4.65-4.35 9.5-9.09 13.91l-.65-.7c4.6-4.27 6.77-9 8.87-13.61 2.18-4.75 4.23-9.23 8.72-13 6.31-5.27 8.1-11.46 9.4-16a27.79 27.79 0 0 1 1.51-4.37 9.06 9.06 0 0 1 4.59-4.18c.69-.34 1.1-.56 1-.72-.1-.16-.27-.27-.6-.32-1.4-.21-4.52.85-7.34 4.66a18.75 18.75 0 0 0-2.51 5.13c-1.33 3.64-2.83 7.76-10 13.83-5.21 4.45-7.22 8.42-9.17 12.26-1.67 3.3-3.26 6.45-6.71 9.71z"/><path class="cls-5" d="m753.28 503.28 62.87-67.78s1.23-1.24.41-2.05c-.82-.81-2 .41-2 .41l-67.78 62.87m30.55-11.67c12-4.45 15.47-14.4 26.41-17.82s14.5-11.67 18-14.72c3.5-3.05 7.15-1.26 7.24-2.71.09-1.45-4.25-2.74-9.72.53-5.47 3.27-5.37 8.42-18.68 12.71-13.31 4.29-13.69 11.85-26.07 15.17"/><path class="cls-6" d="m753.63 503.61-.7-.65 22.82-24.6c-.37.11-.74.22-1.13.32l-.25-.92a26.63 26.63 0 0 0 2.73-.87l38.7-41.72s.89-.92.42-1.39c-.08-.08-.27-.27-.78 0a2.37 2.37 0 0 0-.59.43l-67.8 62.88-.64-.7 67.78-62.87a3.65 3.65 0 0 1 .82-.59 1.49 1.49 0 0 1 2.07 2.07 3.23 3.23 0 0 1-.6.84L779.24 476a34 34 0 0 0 7.7-5.4c3.33-2.87 6.78-5.83 13.48-8 8.68-2.8 11.55-5.94 14.09-8.71a19.75 19.75 0 0 1 4.49-4c4.15-2.48 7.86-2.51 9.55-1.48a1.55 1.55 0 0 1 .89 1.39c-.06 1-1.06 1.09-2.13 1.16a8.14 8.14 0 0 0-5.27 1.88 26.14 26.14 0 0 0-2.95 3.33c-3 3.78-7.13 8.94-15.26 11.49-5.38 1.68-8.91 5-12.66 8.44-3.75 3.44-7.66 7.12-13.72 9.37l-.33-.89c5.88-2.19 9.71-5.74 13.41-9.18 3.7-3.44 7.43-6.91 13-8.65 7.85-2.46 11.87-7.49 14.8-11.17a26.51 26.51 0 0 1 3.07-3.46 9.05 9.05 0 0 1 5.83-2.11c.77-.05 1.23-.09 1.24-.27.01-.18-.15-.35-.43-.52-1.22-.73-4.5-.94-8.57 1.49a18.71 18.71 0 0 0-4.28 3.78c-2.62 2.86-5.58 6.1-14.5 9-6.52 2.1-9.89 5-13.15 7.8-2.81 2.41-5.49 4.71-9.91 6.4z"/><path class="cls-6" d="M744.16 466.92c-.62-12.28-7.57-17.71-6.2-28.89-3 8.84 4.23 15.7 3.82 28.76M752.14 499l-26.41-57.7 22.13 59.48"/><path class="cls-6" d="M757.27 467.19c4.12-11.56-.22-19.25 5.31-29.06-6.15 7-2.09 16.13-7.47 28m-2.74 33.72-2.32-63.43-2.32 63.43"/><path class="cls-6" d="M769.27 472.48c8.24-9.12 7.16-17.88 16-24.82-8.37 4.13-8.1 14.09-17.63 23m-15.44 30.1 22.13-59.48L748 499"/><path class="cls-6" d="M778.33 481.94c11.11-5.26 13.46-13.77 24.32-16.78-9.32.61-12.89 9.92-25.12 14.54m-25.78 21.89L795 455.11l-46.49 43.21"/><path class="cls-5" d="m751.78 504.28 84-38.57s1.6-.66 1.16-1.72c-.44-1.06-2.05-.41-2.05-.41l-86.68 32.14m32.69.92c12.78.48 19.81-7.38 31.22-6.36 11.41 1.02 17.86-5.24 22.3-6.7 4.44-1.46 7.09 1.58 7.72.28.63-1.3-2.87-4.17-9.18-3.23s-8.18 5.72-22.12 4.59c-13.94-1.13-17.18 5.7-29.9 4"/><path class="cls-6" d="m752 504.71-.4-.86 30.48-14-1.16-.13.12-1c1 .13 2 .21 2.86.24l51.72-23.74s1.17-.51.92-1.11a.44.44 0 0 0-.24-.26 2 2 0 0 0-1.19.11l-86.71 32.2-.33-.89 86.68-32.13a2.78 2.78 0 0 1 1.89-.11 1.39 1.39 0 0 1 .76.78c.49 1.19-.72 2.05-1.42 2.34L786.2 489a33.43 33.43 0 0 0 9.17-2c4.18-1.37 8.5-2.79 15.53-2.21 9.08.73 12.93-1.07 16.34-2.66a19.34 19.34 0 0 1 5.67-1.93c4.77-.71 8.21.68 9.39 2.27a1.57 1.57 0 0 1 .29 1.63c-.45.92-1.4.6-2.4.26a8.08 8.08 0 0 0-5.6-.28 24.75 24.75 0 0 0-4 1.95c-4.23 2.33-10 5.53-18.49 4.76-5.62-.5-10.14 1.18-14.92 3-4.78 1.82-9.81 3.66-16.28 3.41v-.95c6.29.23 11.17-1.59 15.9-3.35 4.9-1.82 9.51-3.54 15.34-3 8.19.74 13.83-2.38 18-4.65a26.46 26.46 0 0 1 4.16-2 9 9 0 0 1 6.2.29c.71.24 1.17.38 1.24.23.07-.15 0-.39-.2-.66-.84-1.14-3.8-2.59-8.48-1.89a18.88 18.88 0 0 0-5.41 1.85c-3.51 1.64-7.49 3.5-16.82 2.74-6.83-.55-11.06.84-15.15 2.18-3.52 1.15-6.87 2.26-11.6 2.11z"/><path class="cls-5" d="m750 504.63 92.38-3.47s1.75 0 1.75-1.16-1.74-1.15-1.74-1.15L750 495.37m29.85 13.36c11.63 5.33 21.13.75 31.28 6.07 10.15 5.32 18.51 2 23.16 2.35 4.65.35 6 4.16 7 3.2s-1.05-4.94-7.24-6.49c-6.19-1.55-9.75 2.15-22.2-4.23-12.45-6.38-18-1.3-29.16-7.71"/><path class="cls-6" d="M841 521a2.93 2.93 0 0 1-1.64-1 8.15 8.15 0 0 0-5.07-2.4 26.55 26.55 0 0 0-4.44.27c-4.79.54-11.36 1.28-18.9-2.67-5-2.61-9.81-2.79-14.92-3-5.11-.21-10.45-.38-16.34-3.07l.4-.87c5.72 2.62 10.93 2.81 16 3 5.21.19 10.14.37 15.32 3.09 7.29 3.81 13.68 3.09 18.35 2.57a27.46 27.46 0 0 1 4.63-.28 9 9 0 0 1 5.62 2.64c.56.49.93.8 1.06.69.13-.11.14-.36.06-.68-.34-1.38-2.51-3.85-7.1-5a18.92 18.92 0 0 0-5.71-.35c-3.87.16-8.26.36-16.6-3.91-6.09-3.13-10.53-3.46-14.81-3.79-3.7-.28-7.22-.55-11.55-2.49L750 505.11v-.95l33.51-1.26-1-.57.48-.82a28.08 28.08 0 0 0 2.54 1.31l56.86-2.13s1.29 0 1.29-.69-1.25-.68-1.26-.68L750 495.84v-.95l92.39 3.48c.75 0 2.19.34 2.19 1.63 0 1.29-1.45 1.64-2.22 1.64l-54.73 2.05a33.6 33.6 0 0 0 9.27 1.63c4.38.33 8.91.68 15.18 3.89 8.11 4.15 12.36 4 16.12 3.81a19.24 19.24 0 0 1 6 .38c4.68 1.17 7.32 3.77 7.8 5.69a1.59 1.59 0 0 1-.36 1.62 1 1 0 0 1-.64.29Z"/><path class="cls-5" d="m748.23 504.28 86.68 32.15s1.61.66 2.05-.41c.44-1.07-1.16-1.73-1.16-1.73l-84-38.57m22.47 23.77c8.7 9.37 19.23 8.78 26.57 17.57 7.34 8.79 16.34 8.93 20.51 11 4.17 2.07 3.89 6.12 5.26 5.65 1.37-.47.91-5-4.2-8.78-5.11-3.78-9.83-1.74-18.89-12.39s-16.18-8.12-24-18.28"/><path class="cls-6" d="M826.35 554.27c-.71 0-1.09-.78-1.49-1.6a8.11 8.11 0 0 0-3.76-4.15 26.31 26.31 0 0 0-4.2-1.44c-4.64-1.34-11-3.17-16.45-9.71-3.61-4.33-8-6.33-12.65-8.46-4.65-2.13-9.5-4.35-13.91-9.09l.7-.65c4.27 4.6 9 6.77 13.61 8.87 4.75 2.18 9.23 4.23 13 8.72 5.27 6.31 11.46 8.1 16 9.4a27.43 27.43 0 0 1 4.37 1.51 9 9 0 0 1 4.18 4.59c.34.68.55 1.1.72 1 .17-.1.27-.27.32-.6.21-1.4-.85-4.52-4.66-7.34a18.75 18.75 0 0 0-5.13-2.51c-3.64-1.33-7.76-2.83-13.83-10-4.44-5.21-8.41-7.22-12.25-9.17-3.31-1.67-6.46-3.26-9.71-6.7l-33.11-12.28.33-.89 31.45 11.66c-.24-.29-.48-.59-.72-.91l.75-.58a26.31 26.31 0 0 0 1.85 2.18L835.07 536s1.2.46 1.45-.14c.25-.6-.89-1.11-.9-1.11l-84-38.58.4-.86 84 38.56a2.8 2.8 0 0 1 1.41 1.27 1.42 1.42 0 0 1 0 1.09 1.53 1.53 0 0 1-1.67.89 3.7 3.7 0 0 1-1-.23l-51.36-19a33.72 33.72 0 0 0 7.94 5c3.92 2 8 4 12.54 9.4 5.91 6.94 9.91 8.4 13.44 9.69a19.48 19.48 0 0 1 5.37 2.63c3.88 2.88 5.33 6.3 5 8.26a1.57 1.57 0 0 1-1 1.35 1.15 1.15 0 0 1-.34.05z"/><path class="cls-5" d="m746.73 503.28 67.78 62.87s1.23 1.23 2 .41c.77-.82-.4-2-.4-2l-62.87-67.79m11.66 30.56c4.45 12 14.4 15.47 17.82 26.41s11.68 14.5 14.73 18c3.05 3.5 1.25 7.15 2.7 7.24 1.45.09 2.74-4.25-.53-9.72-3.27-5.47-8.42-5.38-12.71-18.68-4.29-13.3-11.85-13.69-15.17-26.07"/><path class="cls-6" d="M800.23 579.44h-.07c-1-.06-1.09-1.06-1.15-2.13a8.1 8.1 0 0 0-1.89-5.27 25.24 25.24 0 0 0-3.32-2.94c-3.78-3-8.95-7.13-11.49-15.27-1.68-5.37-5-8.91-8.44-12.65-3.44-3.74-7.13-7.66-9.38-13.73l.89-.33c2.19 5.89 5.75 9.71 9.18 13.41 3.43 3.7 6.91 7.44 8.66 13 2.45 7.86 7.49 11.87 11.17 14.81a26.52 26.52 0 0 1 3.46 3 9.07 9.07 0 0 1 2.1 5.84c0 .74.1 1.23.27 1.24.17.01.35-.15.52-.43.73-1.22.94-4.5-1.49-8.57a18.71 18.71 0 0 0-3.78-4.28c-2.86-2.62-6.1-5.59-9-14.5-2.1-6.52-5-9.89-7.8-13.15-2.41-2.81-4.72-5.49-6.4-9.93l-25.89-24 .65-.7 24.59 22.8c-.11-.36-.22-.73-.32-1.11l.92-.25c.26 1 .55 1.88.86 2.72l41.74 38.71s.91.89 1.38.42c.47-.47-.4-1.37-.41-1.38l-62.88-67.79.7-.65 62.87 67.79c.53.53 1.3 1.79.39 2.71a1.4 1.4 0 0 1-1 .42 2.87 2.87 0 0 1-1.72-.84L774 529.23a33.71 33.71 0 0 0 5.4 7.71c2.87 3.33 5.83 6.78 8 13.48 2.8 8.67 5.94 11.55 8.71 14.09a19.75 19.75 0 0 1 4 4.49c2.48 4.15 2.51 7.86 1.48 9.55a1.58 1.58 0 0 1-1.36.89z"/><path class="cls-6" d="M783.08 494.16c12.28-.61 17.71-7.57 28.89-6.2-8.84-3-15.7 4.23-28.76 3.82M751 502.14l57.71-26.41-59.48 22.13"/><path class="cls-6" d="M782.81 507.26c11.57 4.13 19.25-.21 29.06 5.32-7-6.15-16.13-2.09-28-7.47m-33.71-2.74 63.42-2.32-63.42-2.32"/><path class="cls-6" d="M777.53 519.26c9.11 8.25 17.87 7.17 24.81 16-4.13-8.37-14.09-8.1-23-17.63m-30.1-15.44 59.48 22.13L751 498"/><path class="cls-6" d="M768.05 528.33c5.27 11.11 13.78 13.46 16.8 24.32-.62-9.32-9.93-12.89-14.54-25.12m-21.9-25.78L794.89 545l-43.21-46.49"/><path class="cls-5" d="M750 462.35A37.65 37.65 0 1 1 712.35 500 37.65 37.65 0 0 1 750 462.35"/><path class="cls-6" d="M750 538.29A38.29 38.29 0 1 1 788.29 500 38.34 38.34 0 0 1 750 538.29Zm0-75.3a37 37 0 1 0 37 37A37.05 37.05 0 0 0 750 463Z"/><path class="cls-7" d="M762.84 492a7.43 7.43 0 0 0-6.48 3.43c2.89 2.61 9.29 2.89 13.63-.29a9.91 9.91 0 0 0-7.15-3.14m0 .59c2.49-.05 4.83 1.1 5.16 2.24a7.63 7.63 0 0 1-10.42.6 6.11 6.11 0 0 1 5.26-2.84"/><path class="cls-6" d="M763.32 490.16c-3.76 0-4.63.87-6.37 2.32-1.74 1.45-2.6 1.15-2.89 1.45-.29.3 0 1.16.58.86a16.51 16.51 0 0 0 3.47-2.31c1.74-1.46 3.47-1.45 5.21-1.45 5.21 0 8.11 4.34 8.69 4.05.58-.29-2.9-4.92-8.69-4.92z"/><path class="cls-6" d="M773.75 491.9c-6.67-5.8-15.07-6.66-19.69-2.32a11.43 11.43 0 0 0-2.17 4.84c-.58 3.3.46 6.86 3 10.51a2.15 2.15 0 0 0-1.15.57 20.56 20.56 0 0 1-2.37-13.2 19 19 0 0 1 .91-3.3c6.4-5.21 15.09-5.79 21.47 2.9z"/><path class="cls-6" d="M762.74 492.18a2.61 2.61 0 1 1-2.6 2.6 2.6 2.6 0 0 1 2.6-2.6"/><path class="cls-6" d="M770.28 496.53c-4.93 3.77-9.85 3.47-12.75 1.74-2.9-1.73-2.89-2.32-2.31-2.32.58 0 1.16.58 3.47 1.74 2.31 1.16 5.79 1.16 11.59-1.16zM744.24 505.2a2.61 2.61 0 0 0 .51 5.17 2.53 2.53 0 0 0 2.11-1.1 5.45 5.45 0 0 0 3.14.84h.34a5.41 5.41 0 0 0 3.14-.84 2.55 2.55 0 0 0 2.11 1.1 2.61 2.61 0 0 0 .51-5.17 1.74 1.74 0 0 1 1.14 1.66 1.72 1.72 0 0 1-1.73 1.73 1.74 1.74 0 0 1-1.74-1.65 3.95 3.95 0 0 1-7.2 0 1.74 1.74 0 0 1-3.48-.08 1.77 1.77 0 0 1 1.15-1.66M747.07 512.92c-2.9 0-4 2.62-6.64 4.36 1.44-.58 2.58-1.72 4.61-2.88 2.03-1.16 3.75.25 4.92.25 1.15 0 2.88-1.41 4.91-.25 2.03 1.16 3.2 2.3 4.66 2.88-2.61-1.74-3.79-4.36-6.7-4.36a7.83 7.83 0 0 0-2.87.88 8 8 0 0 0-2.89-.88"/><path class="cls-6" d="M746.1 516.35a19.84 19.84 0 0 0-4.83.93c5.21-1.16 6.36.6 8.68.6 2.31 0 3.46-1.76 8.68-.6-5.8-1.74-6.95-.59-8.68-.59a32.22 32.22 0 0 0-3.85-.34"/><path class="cls-6" d="M741.53 517.24a8.55 8.55 0 0 0-1.1 0c6.08.57 3.16 4.06 9.53 4.06 6.37 0 3.49-3.49 9.57-4.06-6.37-.58-4.35 3.17-9.57 3.17-4.89 0-3.39-3.28-8.43-3.22"/><path class="cls-6" d="M755.22 526.65a5.22 5.22 0 1 0-10.43 0 5.36 5.36 0 0 1 10.43 0M726.59 491.9c6.67-5.8 15.06-6.66 19.7-2.32a11.41 11.41 0 0 1 2.16 4.84c.58 3.3-.45 6.86-3 10.51a2.11 2.11 0 0 1 1.16.57 20.56 20.56 0 0 0 2.37-13.2 19 19 0 0 0-.98-3.3c-6.35-5.21-15-5.79-21.41 2.9z"/><path class="cls-6" d="M737 490.16c3.76 0 4.64.87 6.37 2.32 1.73 1.45 2.6 1.15 2.89 1.45.29.3 0 1.16-.57.86a16.22 16.22 0 0 1-3.48-2.31C740.49 491 738.75 491 737 491c-5.22 0-8.11 4.34-8.69 4.05-.58-.29 2.89-4.92 8.69-4.92"/><path class="cls-7" d="M736.84 492a7.43 7.43 0 0 0-6.48 3.43c2.89 2.61 9.3 2.89 13.64-.29a9.94 9.94 0 0 0-7.16-3.14m0 .59c2.5-.05 4.84 1.1 5.16 2.24a7.62 7.62 0 0 1-10.41.6 6.09 6.09 0 0 1 5.25-2.84"/><path class="cls-6" d="M737.18 492.18a2.61 2.61 0 1 1-2.6 2.6 2.59 2.59 0 0 1 2.6-2.6"/><path class="cls-6" d="M730.06 496.53c4.93 3.77 9.85 3.47 12.75 1.74 2.9-1.73 2.89-2.32 2.31-2.32-.58 0-1.15.58-3.47 1.74-2.32 1.16-5.79 1.16-11.59-1.16z"/></g></svg>