<?xml version="1.0" encoding="UTF-8" standalone="no"?>
<svg
   width="98.131714mm"
   height="24mm"
   viewBox="0 0 98.131726 24"
   version="1.1"
   id="svg8"
   xmlns="http://www.w3.org/2000/svg"
   xmlns:svg="http://www.w3.org/2000/svg">
  <defs
     id="defs8">
    <rect
       x="82.98629"
       y="-69.783928"
       width="38.664066"
       height="18.546179"
       id="rect4" />
  </defs>
  <path
     d="m 29.169448,17.362508 c 2.740845,0 4.303178,-1.491309 4.303178,-4.085392 V 5.8440329 h -3.246594 v 7.4096201 c 0,0.88564 -0.375195,1.351723 -1.102846,1.351723 -0.719811,0 -1.186746,-0.505056 -1.186746,-1.390299 v -0.01591 h -3.108983 v 0.02386 c 0,2.594083 1.692102,4.139875 4.341599,4.139875 z m 7.4349,-10.0506292 c 0.880552,0 1.600362,-0.6991257 1.600362,-1.5843668 0,-0.8935925 -0.71981,-1.5923205 -1.600362,-1.5923205 -0.87271,0 -1.600361,0.698728 -1.600361,1.5923205 0,0.8852411 0.727651,1.5843668 1.600361,1.5843668 z M 35.034566,17.051919 H 38.17413 V 8.3215945 h -3.139564 z m 4.426283,3.97e-4 h 3.139171 v -4.932457 c 0,-0.847063 0.421066,-1.452734 1.171456,-1.452734 0.796653,0 1.156557,0.54403 1.156557,1.452734 v 4.93206 h 3.139171 V 11.41278 c 0,-2.0969795 -0.980133,-3.3087178 -2.878847,-3.3087178 -1.194586,0 -2.08298,0.6370873 -2.435044,1.600274 H 42.600412 V 8.3215945 H 39.460457 Z M 50.846863,7.3118788 c 0.880552,0 1.600362,-0.6991257 1.600362,-1.5843668 0,-0.8935925 -0.71981,-1.5923205 -1.600362,-1.5923205 -0.872711,0 -1.600362,0.698728 -1.600362,1.5923205 0,0.8852411 0.727651,1.5843668 1.600362,1.5843668 z M 48.963439,20.003517 c 2.182169,0 3.453206,-1.033178 3.453206,-2.803661 V 8.3215945 h -3.139564 v 8.7382775 c 0,0.489149 -0.275613,0.698728 -0.911132,0.698728 -0.130161,0 -0.267772,-0.0075 -0.359905,-0.02307 v 2.221453 c 0.183874,0.02307 0.642968,0.04653 0.957395,0.04653 z m 7.067546,-2.827124 c 1.087164,0 2.006137,-0.458528 2.335462,-1.1497 h 0.152901 v 1.025226 h 3.078402 v -5.941775 c 0,-1.9108644 -1.401198,-3.0060818 -3.859372,-3.0060818 -2.473073,0 -4.012275,1.0952174 -4.142437,2.7805958 l -0.0078,0.101011 h 2.802397 l 0.01568,-0.03858 c 0.14506,-0.365072 0.520647,-0.567095 1.140876,-0.567095 0.604938,0 0.972292,0.279571 0.972292,0.730145 v 0.644246 l -1.699943,0.101408 c -2.281751,0.139587 -3.530049,1.071756 -3.530049,2.656521 v 0.01511 c 0,1.592321 1.095005,2.648566 2.741237,2.648566 z m 0.252874,-2.88956 v -0.01591 c 0,-0.419157 0.382645,-0.698728 1.041294,-0.745257 l 1.194586,-0.07755 v 0.505057 c 0,0.60567 -0.559068,1.07931 -1.263587,1.07931 -0.597097,0 -0.972293,-0.29508 -0.972293,-0.745654 z m 6.064282,2.765483 h 3.430467 l 1.891265,-3.379108 h 0.06155 l 1.906556,3.378711 h 3.61434 L 69.84459,11.451753 v -0.06204 L 73.267218,5.8440355 H 69.66856 l -1.745813,3.5727789 h -0.06116 L 66.123223,5.8440329 h -3.782531 l 3.261884,5.5301721 v 0.06204 z"
     aria-label="JinjaX"
     style="font-weight:900;font-family:'SF Pro Text';fill:#373737;fill-opacity:1;stroke:none;stroke-width:0.571288;stroke-miterlimit:4;stroke-dasharray:none;stroke-dashoffset:0;stroke-opacity:1"
     id="path1" />
  <rect
     width="24"
     height="24"
     fill="#a9a9a9"
     opacity="0.8"
     x="0"
     y="0"
     id="rect1"
     ry="1.875"
     style="stroke-width:0.0676123"
     rx="1.875" />
  <rect
     x="12.75"
     y="0.9375"
     width="10.3125"
     height="22.125"
     rx="0.96834922"
     ry="0.9375"
     fill="#ffffff"
     id="rect12"
     style="fill:#373737;fill-opacity:1;stroke-width:0.0713649" />
  <rect
     x="9.375"
     y="0.9375"
     width="7.5"
     height="10.3125"
     fill="#ff7f6e"
     rx="0"
     ry="0"
     id="rect11"
     style="stroke-width:0.0695267" />
  <rect
     x="3.375"
     y="10.703026"
     width="19.6875"
     height="11.25"
     fill="#ffd166"
     rx="0"
     ry="0"
     id="rect13"
     style="stroke-width:0.143206" />
  <rect
     x="11.8125"
     y="10.703026"
     width="11.25"
     height="3.75"
     fill="#cce6ff"
     rx="0"
     ry="0"
     id="rect16"
     style="stroke-width:0.075" />
  <rect
     x="11.8125"
     y="14.453026"
     width="11.25"
     height="3.75"
     fill="#4dbd9c"
     rx="0"
     ry="0"
     id="rect17"
     style="stroke-width:0.0684653" />
  <rect
     x="11.8125"
     y="6.9530258"
     width="11.25"
     height="3.75"
     fill="#4a9af8"
     rx="0"
     ry="0"
     id="rect15"
     style="stroke-width:0.075" />
  <rect
     x="0.9375"
     y="0.9375"
     width="9.375"
     height="22.125"
     rx="0.88031757"
     ry="0.9375"
     fill="#ffffff"
     id="rect12-6"
     style="fill:#373737;fill-opacity:1;stroke-width:0.0680438" />
  <rect
     x="4.9775991"
     y="3.3573825"
     width="2.1394219"
     height="2.0742188"
     fill="none"
     stroke="#000000"
     stroke-width="0.210657"
     id="rect3"
     style="fill:#ffffff;fill-opacity:1;stroke:#ffffff" />
  <text
     xml:space="preserve"
     transform="scale(0.26458333)"
     id="text2"
     style="font-weight:bold;font-family:'Roboto Condensed';-inkscape-font-specification:'Roboto Condensed,  Bold';text-align:start;writing-mode:lr-tb;direction:ltr;white-space:pre;shape-inside:url(#rect4);fill:#ff55dd;stroke:none;stroke-width:8;stroke-linecap:round;stroke-linejoin:round" />
  <text
     xml:space="preserve"
     style="font-style:normal;font-variant:normal;font-weight:900;font-stretch:normal;font-size:20.2585px;font-family:'SF Pro Text';-inkscape-font-specification:'SF Pro Text Heavy';text-align:start;writing-mode:lr-tb;direction:ltr;text-anchor:start;fill:#ff55dd;fill-opacity:1;stroke:#ff55dd;stroke-width:1.5;stroke-linecap:round;stroke-linejoin:round;stroke-dasharray:none;stroke-opacity:0.578441"
     x="70.144608"
     y="33.023628"
     id="text5"
     transform="matrix(1.026521,-0.1289481,0.12023591,0.95906056,0,0)"><tspan
       id="tspan5"
       style="font-style:normal;font-variant:normal;font-weight:900;font-stretch:normal;font-size:20.2585px;font-family:'SF Pro Text';-inkscape-font-specification:'SF Pro Text Heavy';fill:#ff55dd;fill-opacity:1;stroke:#ff55dd;stroke-width:1.5;stroke-dasharray:none;stroke-opacity:0.578441"
       x="70.144608"
       y="33.023628">UI</tspan></text>
</svg>
